<?xml version="1.0" encoding="iso-8859-1"?>
<!-- Generator: Adobe Illustrator 19.0.0, SVG Export Plug-In . SVG Version: 6.00 Build 0)  -->
<svg version="1.1" id="Capa_1" xmlns="http://www.w3.org/2000/svg" xmlns:xlink="http://www.w3.org/1999/xlink" x="0px" y="0px"
	 viewBox="0 0 468.293 468.293" style="enable-background:new 0 0 468.293 468.293;" xml:space="preserve">
<path style="fill:#3A556A;" d="M468.284,344.191c-0.274,25.893-10.686,50.279-29.112,68.774
	c-24.181,24.112-48.978,28.427-81.378,28.427h-64.527v-34.25h64.527c26.715-0.137,42.333-3.63,57.129-18.426
	c12.125-12.124,18.906-28.085,19.112-44.936c0.274-16.782-6.028-32.332-17.673-43.977l24.249-24.249
	C458.831,293.775,468.627,318.161,468.284,344.191z"/>
<path style="fill:#EBF0F3;" d="M252.784,96.291l-24.249,24.249l-29.866-29.934C179.694,71.63,154.417,61.15,127.566,61.15
	c0,0,0,0-0.069,0c-26.851,0-52.06,10.48-71.034,29.455L32.214,66.356C57.696,40.943,91.535,26.9,127.497,26.9h0.069
	c35.962,0,69.87,14.042,95.283,39.456L252.784,96.291z"/>
<path style="fill:#64798A;" d="M419.135,224.188l29.872,29.872c4.234,4.234,4.234,11.099,0,15.334l-38.819,38.819
	c-4.234,4.234-11.099,4.234-15.333,0l-29.872-29.872L419.135,224.188z"/>
<rect x="204.972" y="72.744" transform="matrix(-0.7071 0.7071 -0.7071 -0.7071 465.9243 5.9936)" style="fill:#D5D6DB;" width="53.498" height="53.498"/>
<path style="fill:#64798A;" d="M372.248,76.359l9.203,9.203c6.684,6.684,8.379,16.905,4.262,25.381l-7.508,15.451l57.01,57.01
	c10.365,10.365,10.365,27.221,0,37.587l-63.791,63.791c-10.365,10.365-27.221,10.365-37.586,0L231.152,182.096l0.581-44.755
	l37.829-37.829l43.496-26.834c4.117-2.567,9.493-1.937,12.981,1.55c3.149,3.149,7.992,3.924,12.013,2.034l8.573-4.214
	C355.246,67.883,365.515,69.626,372.248,76.359z"/>
<polygon style="fill:#FFFFFF;" points="341.055,146.108 403.102,208.156 349.483,261.775 257.744,170.036 281.671,146.108 "/>
<path style="fill:#E56353;" d="M341.055,146.108l38.12,38.12l-4.553,4.553c-13.901,13.901-36.376,13.901-50.277,0l-42.673-42.673
	H341.055z"/>
<path style="fill:#44C4A1;" d="M56.276,157.359c0,15.548-12.616,28.164-28.112,28.164C12.616,185.523,0,172.906,0,157.359
	c0-15.496,28.164-54.287,28.164-54.287S56.276,141.863,56.276,157.359z"/>
<g>
</g>
<g>
</g>
<g>
</g>
<g>
</g>
<g>
</g>
<g>
</g>
<g>
</g>
<g>
</g>
<g>
</g>
<g>
</g>
<g>
</g>
<g>
</g>
<g>
</g>
<g>
</g>
<g>
</g>
</svg>
